#!OML:ASF H:\ManfredETheater\Project 1\Capture day 1\Session 1\subject.ASF
:FULLY-SPECIFIED
:DEGREES
62
root 8.17556 16.132 15.0431 -165.29 -34.6627 175.965
lowerback 18.2998 0.182913 -1.6428
upperback 0.181759 -0.356563 -1.19057
thorax -10.1005 -0.174988 -0.25983
lowerneck -15.7953 -4.16547 -3.4932
upperneck -6.47222 -5.70787 5.03905
head 0.860659 -3.0287 1.88906
rclavicle 3.0265e-014 -6.20208e-014
rhumerus -47.1399 2.29154 -86.6312
rradius 74.7947
rwrist -4.48711
rhand -38.5415 10.1319
rfingers 7.12502
rthumb -11.5615 -19.5292
lclavicle 3.0265e-014 -6.20208e-014
lhumerus -13.2618 -20.0004 100.506
lradius 93.2632
lwrist 14.0648
lhand -23.2366 -16.9925
lfingers 7.12502
lthumb 3.21458 12.963
rfemur -46.7329 -20.1707 9.72989
rtibia 122.302
rfoot -7.3167 1.34602
rtoes -18.6868
lfemur -44.0405 -5.74589 -26.6631
ltibia 62.5335
lfoot -24.773 -5.75667
ltoes 2.94379
63
root 8.05329 16.2302 14.6436 -165.088 -35.9594 175.68
lowerback 18.388 -0.445012 -1.92107
upperback 0.0155089 -1.21811 -0.97521
thorax -10.3176 -0.55506 0.36345
lowerneck -16.1224 -3.88399 -3.37175
upperneck -6.29019 -5.35841 5.03855
head 0.957358 -2.85349 1.88272
rclavicle 1.87665e-014 -1.27098e-014
rhumerus -49.4893 1.9641 -83.9204
rradius 74.7386
rwrist -3.29193
rhand -38.8791 10.9231
rfingers 7.12502
rthumb -11.887 -18.7195
lclavicle 1.87665e-014 -1.27098e-014
lhumerus -8.29178 -21.169 99.8285
lradius 95.7922
lwrist 14.6498
lhand -23.2429 -16.7819
lfingers 7.12502
lthumb 3.2085 13.1737
rfemur -52.4466 -21.8058 9.45173
rtibia 124.275
rfoot -7.78831 1.5891
rtoes -18.7241
lfemur -41.6472 -5.99377 -26.4714
ltibia 61.0939
lfoot -25.4203 -6.3436
ltoes 3.33471
64
root 7.92809 16.3458 14.2382 -164.938 -37.2258 175.549
lowerback 18.431 -1.10961 -2.09449
upperback -0.168725 -2.09652 -0.694413
thorax -10.5128 -0.943105 1.00642
lowerneck -16.3729 -3.56319 -3.20321
upperneck -6.11633 -4.96543 4.98247
head 1.03384 -2.65841 1.85483
rclavicle 8.69683e-014 -4.52421e-014
rhumerus -51.7141 2.09287 -81.248
rradius 74.8806
rwrist -2.78172
rhand -38.9942 11.5623
rfingers 7.12502
rthumb -11.998 -18.0738
lclavicle 8.69683e-014 -4.52421e-014
lhumerus -3.71086 -21.9097 98.8836
lradius 98.618
lwrist 15.3997
lhand -23.3599 -16.4376
lfingers 7.12502
lthumb 3.09555 13.5197
rfemur -58.1244 -22.9787 9.45799
rtibia 125.402
rfoot -8.04345 1.74343
rtoes -19.024
lfemur -39.1636 -6.2004 -26.0888
ltibia 59.368
lfoot -25.833 -6.86628
ltoes 3.34411
65
root 7.79626 16.4821 13.8268 -164.889 -38.3584 175.613
lowerback 18.427 -1.77737 -2.14846
upperback -0.369658 -2.94544 -0.355092
thorax -10.6877 -1.31943 1.63912
lowerneck -16.5315 -3.2166 -3.01503
upperneck -5.93369 -4.54014 4.8945
head 1.09589 -2.44717 1.81695
rclavicle -6.75557e-014 1.73315e-014
rhumerus -53.7423 2.67202 -78.6742
rradius 75.0264
rwrist -2.82091
rhand -38.9149 12.1086
rfingers 7.12502
rthumb -11.9216 -17.532
lclavicle -6.75557e-014 1.73315e-014
lhumerus 0.43009 -22.2619 97.6475
lradius 101.709
lwrist 16.3819
lhand -23.6034 -15.9311
lfingers 7.12502
lthumb 2.86033 14.0295
rfemur -63.6076 -23.5252 9.66097
rtibia 125.667
rfoot -8.09218 1.76536
rtoes -19.5196
lfemur -36.5595 -6.37995 -25.5057
ltibia 57.3302
lfoot -25.9628 -7.21973
ltoes 2.77379
66
root 7.65578 16.6422 13.4087 -164.981 -39.3006 175.879
lowerback 18.3922 -2.41826 -2.09469
upperback -0.570272 -3.73016 0.0359362
thorax -10.837 -1.66917 2.25043
lowerneck -16.6287 -2.86876 -2.84522
upperneck -5.7197 -4.1071 4.78993
head 1.15901 -2.2302 1.77845
rclavicle 5.94366e-014 -3.62782e-015
rhumerus -55.526 3.64741 -76.2297
rradius 75.0301
rwrist -3.07502
rhand -38.7292 12.5158
rfingers 7.12502
rthumb -11.7425 -17.1351
lclavicle 5.94366e-014 -3.62782e-015
lhumerus 4.16653 -22.2563 96.1363
lradius 104.939
lwrist 17.5609
lhand -24.0808 -15.3717
lfingers 7.12502
lthumb 2.39931 14.5946
rfemur -68.6689 -23.4124 9.92211
rtibia 125.08
rfoot -8.00213 1.59283
rtoes -20.0795
lfemur -33.7836 -6.58357 -24.7396
ltibia 54.9578
lfoot -25.7337 -7.33512
ltoes 1.45423
67
root 7.50514 16.8265 12.9839 -165.224 -39.9992 176.315
lowerback 18.3492 -3.00964 -1.95857
upperback -0.758552 -4.42961 0.464548
thorax -10.9644 -1.98293 2.8339
lowerneck -16.6946 -2.53068 -2.72428
upperneck -5.46105 -3.67481 4.66966
head 1.23384 -2.01086 1.74405
rclavicle -8.67819e-015 1.6027e-014
rhumerus -57.0496 4.9622 -73.9334
rradius 74.7806
rwrist -3.19572
rhand -38.4813 12.7787
rfingers 7.12502
rthumb -11.5034 -16.8856
lclavicle -8.67819e-015 1.6027e-014
lhumerus 7.52386 -21.8909 94.3407
lradius 108.231
lwrist 19.0356
lhand -24.7184 -14.7844
lfingers 7.12502
lthumb 1.78354 15.1879
rfemur -73.1336 -22.7166 10.094
rtibia 123.69
rfoot -7.85159 1.21599
rtoes -20.7204
lfemur -30.8072 -6.8601 -23.852
ltibia 52.2526
lfoot -25.0654 -7.156
ltoes -0.712719
68
root 7.3437 17.0339 12.5523 -165.602 -40.414 176.878
lowerback 18.3095 -3.52013 -1.76876
upperback -0.941377 -5.01176 0.90772
thorax -11.0894 -2.24481 3.37328
lowerneck -16.6911 -2.21689 -2.64572
upperneck -5.17522 -3.26196 4.51896
head 1.30792 -1.79918 1.70685
rclavicle -2.9945e-014 -3.87009e-014
rhumerus -58.3718 6.50802 -71.7951
rradius 74.2149
rwrist -2.90504
rhand -38.1932 12.8795
rfingers 7.12502
rthumb -11.2256 -16.8001
lclavicle -2.9945e-014 -3.87009e-014
lhumerus 10.5085 -21.2042 92.2925
lradius 111.456
lwrist 20.7812
lhand -25.504 -14.2597
lfingers 7.12502
lthumb 1.02481 15.7176
rfemur -76.9138 -21.5426 10.0964
rtibia 121.572
rfoot -7.70418 0.635177
rtoes -21.3245
lfemur -27.634 -7.24027 -22.9186
ltibia 49.2391
lfoot -23.8618 -6.6743
ltoes -3.82933
69
root 7.17201 17.2621 12.1143 -166.095 -40.5292 177.537
lowerback 18.2834 -3.93077 -1.5377
upperback -1.11636 -5.45554 1.35566
thorax -11.2199 -2.4447 3.86071
lowerneck -16.6238 -1.93659 -2.62393
upperneck -4.87313 -2.8779 4.32888
head 1.37869 -1.60043 1.66562
rclavicle 2.1506e-014 -2.48357e-014
rhumerus -59.5302 8.19538 -69.8184
rradius 73.3035
rwrist -2.1011
rhand -37.8619 12.7894
rfingers 7.12502
rthumb -10.906 -16.9073
lclavicle 2.1506e-014 -2.48357e-014
lhumerus 13.1576 -20.2144 90.0473
lradius 114.478
lwrist 22.6647
lhand -26.3898 -13.9119
lfingers 7.12502
lthumb 0.16928 16.0677
rfemur -80.0017 -19.9982 9.92112
rtibia 118.81
rfoot -7.59208 -0.119694
rtoes -21.9435
lfemur -24.2936 -7.71905 -22.0047
ltibia 45.9697
lfoot -22.0105 -5.92214
ltoes -7.69206
70
root 6.99135 17.5082 11.6702 -166.671 -40.3533 178.256
lowerback 18.2739 -4.23511 -1.2754
upperback -1.2827 -5.75552 1.7972
thorax -11.3605 -2.57987 4.28904
lowerneck -16.506 -1.68848 -2.65506
upperneck -4.55201 -2.5214 4.09264
head 1.44885 -1.41446 1.61728
rclavicle 3.23522e-014 7.95139e-016
rhumerus -60.5521 9.93897 -68.0148
rradius 72.0331
rwrist -0.831896
rhand -37.4569 12.4795
rfingers 7.12502
rthumb -10.5154 -17.2375
lclavicle 3.23522e-014 7.95139e-016
lhumerus 15.4819 -18.9551 87.6881
lradius 117.158
lwrist 24.4375
lhand -27.2816 -13.7533
lfingers 7.12502
lthumb -0.692018 16.2253
rfemur -82.4479 -18.1912 9.59277
rtibia 115.493
rfoot -7.51748 -0.995325
rtoes -22.5425
lfemur -20.8386 -8.24969 -21.1767
ltibia 42.5112
lfoot -19.3953 -4.98354
ltoes -11.8967
71
root 6.80326 17.7687 11.2201 -167.308 -39.9192 179.001
lowerback 18.2938 -4.43955 -0.981056
upperback -1.44078 -5.92085 2.2185
thorax -11.5226 -2.65479 4.64672
lowerneck -16.358 -1.47052 -2.73639
upperneck -4.19473 -2.19002 3.81924
head 1.52759 -1.23976 1.56438
rclavicle 4.64411e-014 1.17283e-014
rhumerus -61.4619 11.6677 -66.4109
rradius 70.4113
rwrist 0.708033
rhand -36.9869 11.992
rfingers 7.12502
rthumb -10.062 -17.7475
lclavicle 4.64411e-014 1.17283e-014
lhumerus 17.4716 -17.491 85.2866
lradius 119.406
lwrist 25.8326
lhand -28.0872 -13.6737
lfingers 7.12502
lthumb -1.47009 16.301
rfemur -84.3071 -16.2381 9.15903
rtibia 111.709
rfoot -7.47377 -1.92172
rtoes -23.1141
lfemur -17.332 -8.77297 -20.4754
ltibia 38.9518
lfoot -15.8991 -3.95204
ltoes -15.8184
72
root 6.60938 18.0404 10.7638 -167.958 -39.2895 179.719
lowerback 18.32 -4.56109 -0.669443
upperback -1.58604 -5.97765 2.60783
thorax -11.6874 -2.68208 4.93302
lowerneck -16.2073 -1.27741 -2.85191
upperneck -3.78402 -1.87969 3.5125
head 1.62509 -1.07467 1.50565
rclavicle -1.21756e-013 2.66371e-014
rhumerus -62.2593 13.3115 -65.0194
rradius 68.4604
rwrist 2.26007
rhand -36.4009 11.3908
rfingers 7.12502
rthumb -9.49661 -18.3753
lclavicle -1.21756e-013 2.66371e-014
lhumerus 19.1206 -15.9169 82.9116
lradius 121.16
lwrist 26.6361
lhand -28.7461 -13.6273
lfingers 7.12502
lthumb -2.10652 16.3421
rfemur -85.6567 -14.2615 8.66089
rtibia 107.545
rfoot -7.44809 -2.8443
rtoes -23.7312
lfemur -13.867 -9.23014 -19.9307
ltibia 35.3911
lfoot -11.4029 -2.82409
ltoes -18.9964
73
root 6.41217 18.3196 10.3016 -168.582 -38.5348 180.393
lowerback 18.316 -4.62521 -0.33634
upperback -1.71614 -5.95904 2.95969
thorax -11.8304 -2.67891 5.14328
lowerneck -16.0767 -1.10391 -2.99935
upperneck -3.31414 -1.58511 3.20474
head 1.74779 -0.916614 1.45183
rclavicle -3.40419e-014 4.77083e-015
rhumerus -62.9301 14.822 -63.8497
rradius 66.2168
rwrist 3.55605
rhand -35.674 10.7985
rfingers 7.12502
rthumb -8.79521 -18.9982
lclavicle -3.40419e-014 4.77083e-015
lhumerus 20.4222 -14.3334 80.6024
lradius 122.423
lwrist 26.7646
lhand -29.1942 -13.5443
lfingers 7.12502
lthumb -2.5393 16.4203
rfemur -86.5904 -12.3542 8.16514
rtibia 103.085
rfoot -7.40514 -3.72785
rtoes -24.3031
lfemur -10.5413 -9.51889 -19.5248
ltibia 31.9443
lfoot -5.97254 -1.42956
ltoes -20.8934
74
root 6.21379 18.6027 9.83429 -169.138 -37.7352 180.992
lowerback 18.2455 -4.66168 0.014111
upperback -1.82421 -5.90706 3.26418
thorax -11.9202 -2.66634 5.27439
lowerneck -16.0143 -0.944214 -3.15543
upperneck -2.7761 -1.30357 2.90652
head 1.90718 -0.76531 1.4027
rclavicle 1.01579e-013 -3.33958e-014
rhumerus -63.4462 16.155 -62.8935
rradius 63.7279
rwrist 4.41265
rhand -34.8486 10.3622
rfingers 7.12502
rthumb -7.9987 -19.4664
lclavicle 1.01579e-013 -3.33958e-014
lhumerus 21.3721 -12.8444 78.3763
lradius 123.232
lwrist 26.2464
lhand -29.4314 -13.3826
lfingers 7.12502
lthumb -2.76837 16.5792
rfemur -87.1884 -10.6123 7.70646
rtibia 98.4117
rfoot -7.34444 -4.57791
rtoes -24.8633
lfemur -7.45515 -9.55996 -19.2319
ltibia 28.7639
lfoot 0.0433882 0.397004
ltoes -20.6094
